<svg id="bootstrap" xmlns="http://www.w3.org/2000/svg" width="112.125" height="112.125" viewBox="0 0 112.125 112.125">
  <path id="Tracé_12" data-name="Tracé 12" d="M0,97.667a14.457,14.457,0,0,0,14.458,14.458H97.667a14.457,14.457,0,0,0,14.458-14.458V14.458A14.457,14.457,0,0,0,97.667,0H14.458A14.457,14.457,0,0,0,0,14.458V97.667Z" fill="#563d7c"/>
  <path id="Tracé_13" data-name="Tracé 13" d="M87,77.979V62.1H100.98a21.74,21.74,0,0,1,3.851.333,9.611,9.611,0,0,1,3.281,1.188A6.338,6.338,0,0,1,110.393,66a7.894,7.894,0,0,1,.856,3.9q0,4.279-2.567,6.18a10.73,10.73,0,0,1-6.561,1.9ZM72.075,50.5v67.888h32.9a34.708,34.708,0,0,0,8.89-1.141,23.777,23.777,0,0,0,7.7-3.518,17.329,17.329,0,0,0,5.372-6.133,18.681,18.681,0,0,0,2-8.89,18.811,18.811,0,0,0-3.09-10.887,16.318,16.318,0,0,0-9.366-6.323,16.921,16.921,0,0,0,6.894-5.61,14.872,14.872,0,0,0,2.329-8.557,18.21,18.21,0,0,0-1.569-7.987,13.047,13.047,0,0,0-4.421-5.182,19.083,19.083,0,0,0-6.846-2.8,42.264,42.264,0,0,0-8.843-.856ZM87,106.788V88.152h16.259a12.578,12.578,0,0,1,7.8,2.235q2.947,2.234,2.948,7.464a9.33,9.33,0,0,1-.9,4.374,7.175,7.175,0,0,1-2.425,2.71,10.268,10.268,0,0,1-3.518,1.427,19.96,19.96,0,0,1-4.184.427Z" transform="translate(-40.507 -28.382)" fill="#fff"/>
</svg>
