<svg id="css-3" xmlns="http://www.w3.org/2000/svg" width="79.437" height="112.125" viewBox="0 0 79.437 112.125">
  <path id="Tracé_14" data-name="Tracé 14" d="M40.115,160.856,7.674,151.85.445,70.766H79.882l-7.237,81.071-32.53,9.018Z" transform="translate(-0.445 -48.731)" fill="#264de4"/>
  <path id="Tracé_15" data-name="Tracé 15" d="M154.286,161.336l6.184-69.279H128v76.567Z" transform="translate(-88.282 -63.392)" fill="#2965f1"/>
  <path id="Tracé_16" data-name="Tracé 16" d="M49.708,144.123l.891,9.945H72.853v-9.945ZM47.917,124l.9,9.945H72.853V124ZM72.853,169.95l-.044.012-11.075-2.991-.708-7.931H51.044l1.393,15.615,20.371,5.655.046-.012Z" transform="translate(-33.135 -85.385)" fill="#ebebeb"/>
  <path id="Tracé_17" data-name="Tracé 17" d="M60.484,0H72.528V5.037H65.521v5.037h7.008V15.11H60.484ZM74.937,0H86.982V4.38H79.974v.876h7.008V15.33H74.938v-4.6h7.008V9.854H74.937V0ZM89.391,0h12.045V4.38H94.428v.876h7.008V15.33H89.391v-4.6H96.4V9.854H89.391V0Z" transform="translate(-41.789)"/>
  <path id="Tracé_18" data-name="Tracé 18" d="M151.005,144.123,152.8,124H127.889v9.945H141.9l-.9,10.183H127.889v9.945h12.246l-1.155,12.9-11.091,2.994V180.3l20.387-5.65.149-1.68,2.337-26.181.243-2.67Z" transform="translate(-88.205 -85.385)" fill="#fff"/>
</svg>
