<svg xmlns="http://www.w3.org/2000/svg" width="112.127" height="112.125" viewBox="0 0 112.127 112.125">
  <path id="git-icon" d="M110.012,51.068,61.057,2.115a7.221,7.221,0,0,0-10.211,0L40.679,12.281l12.9,12.9a8.575,8.575,0,0,1,10.86,10.932L76.863,48.537a8.582,8.582,0,1,1-5.146,4.845l-11.59-11.59v30.5A8.681,8.681,0,0,1,62.4,73.917a8.585,8.585,0,1,1-9.338-1.875V41.258a8.488,8.488,0,0,1-2.812-1.875A8.59,8.59,0,0,1,48.4,29.989L35.684,17.276,2.116,50.841a7.223,7.223,0,0,0,0,10.215L51.072,110.01a7.222,7.222,0,0,0,10.212,0l48.728-48.727a7.226,7.226,0,0,0,0-10.216" transform="translate(0 0)" fill="#de4c36"/>
</svg>
