<svg id="html-5" xmlns="http://www.w3.org/2000/svg" width="79.437" height="112.125" viewBox="0 0 79.437 112.125">
  <path id="Tracé_26" data-name="Tracé 26" d="M79.882,70.766l-7.237,81.071-32.53,9.018L7.674,151.85.445,70.766H79.882Z" transform="translate(-0.445 -48.731)" fill="#e44d26"/>
  <path id="Tracé_27" data-name="Tracé 27" d="M128,168.624l26.286-7.287,6.184-69.279H128Z" transform="translate(-88.282 -63.392)" fill="#f16529"/>
  <path id="Tracé_28" data-name="Tracé 28" d="M58.785,133.94H72.853V124H47.917l.238,2.668,2.444,27.4H72.853v-9.945H59.694Zm2.241,25.1H51.044l1.393,15.615,20.371,5.655.046-.012V169.95l-.044.012-11.075-2.991-.708-7.931Z" transform="translate(-33.135 -85.385)" fill="#ebebeb"/>
  <path id="Tracé_29" data-name="Tracé 29" d="M24.18,0h5.054V4.993h4.623V0h5.054V15.12H33.857V10.057H29.234V15.12H24.18V0ZM45.556,5.014H41.108V0H55.062V5.014H50.611V15.12H45.557V5.014h0ZM57.277,0h5.27l3.241,5.313L69.026,0H74.3V15.12H69.265V7.626L65.788,13H65.7L62.222,7.626V15.12H57.277ZM76.813,0h5.055V10.122h7.107v5H76.813V0Z" transform="translate(-16.789)"/>
  <path id="Tracé_30" data-name="Tracé 30" d="M127.889,154.068h12.246l-1.155,12.9-11.091,2.994V180.3l20.387-5.65.149-1.68,2.337-26.181.243-2.67H127.889Zm0-20.152v.024H151.91l.2-2.235.453-5.042L152.8,124H127.889v9.921Z" transform="translate(-88.205 -85.385)" fill="#fff"/>
</svg>
