<svg id="javascript-4" xmlns="http://www.w3.org/2000/svg" width="79.654" height="112.125" viewBox="0 0 79.654 112.125">
  <path id="Tracé_31" data-name="Tracé 31" d="M79.654,489.9H0l7.468,80.977,32.355,9.176,32.355-9.176Z" transform="translate(0 -467.928)" fill="#e6a329"/>
  <path id="Tracé_32" data-name="Tracé 32" d="M887.9,637v76.693l26.215-7.427L920.492,637Z" transform="translate(-848.078 -608.43)" fill="#f1bf22"/>
  <path id="Tracé_33" data-name="Tracé 33" d="M434.714,858.5H394.408L391.6,888.818l.058-.188H425.9l-1.117,12.827L413.859,904.6l-11.087-3.193-.664-7.764H392.044l1.435,15.514,20.38,5.786,20.389-5.786,2.808-30.449H400.714l.466-10.145h25.215l.377,5.813h10.154Z" transform="translate(-374.037 -819.996)" fill="#fff"/>
  <path id="Tracé_34" data-name="Tracé 34" d="M413.868,858.5h-19.46L391.6,888.818l.058-.188h22.21v-9.889H402.131L402.6,868.6h11.271Zm-11.737,35.144H392.044l1.435,15.5,20.38,5.777V904.61l-11.087-3.2Z" transform="translate(-374.037 -819.996)" fill="#ebebeb"/>
  <path id="Tracé_35" data-name="Tracé 35" d="M564.191,10.028H557.1v5.09h12.163V0h-5.073ZM586.777.081H574.417V5.373c1.651,1.65,2.512,2.444,4.943,4.835h-4.943v4.826h12.361V10.217l-4.943-4.835h4.943Z" transform="translate(-532.114)" fill="#231f20"/>
</svg>
