<svg xmlns="http://www.w3.org/2000/svg" width="135.408" height="92.711" viewBox="0 0 135.408 92.711">
  <path id="laravel-1" d="M134.87,43.3c-.966-.966-13.359-16.578-15.451-19.153-2.253-2.575-3.219-2.092-4.667-1.931s-17.06,2.9-18.831,3.058c-1.77.322-2.9.966-1.77,2.575.966,1.449,11.266,15.934,13.52,19.314L66.629,56.984,34.117,2.423C32.83.492,32.508-.152,29.611.009S4.02,2.1,2.411,2.1C.8,2.262-.969,2.906.64,6.769S28,66,28.645,67.607s2.575,4.185,6.921,3.219c4.507-1.127,19.957-5.15,28.488-7.4C68.56,71.47,77.573,87.886,79.344,90.3c2.253,3.219,3.863,2.575,7.243,1.609,2.736-.8,42.168-14.968,43.939-15.773s2.9-1.288,1.609-3.058c-.966-1.288-11.266-15.29-16.739-22.533,3.7-.966,17.06-4.507,18.509-4.989,1.609-.483,1.931-1.288.966-2.253ZM60.352,58.594c-.483.161-23.5,5.633-24.625,5.955-1.288.322-1.288.161-1.288-.322C34.117,63.744,7.078,7.734,6.6,7.091,6.274,6.447,6.274,5.8,6.6,5.8S28.323,3.872,28.967,3.872c.8,0,.644.161.966.644,0,0,30.1,51.986,30.58,52.791.644.8.322,1.127-.161,1.288Zm64.7,12.071c.322.644.8.966-.483,1.288-1.127.483-38.788,13.2-39.593,13.52s-1.288.483-2.253-.966-13.2-22.533-13.2-22.533L109.6,51.512c.966-.322,1.288-.483,1.931.483.644,1.127,13.2,18.187,13.52,18.67Zm2.575-28.327c-.966.161-15.612,3.863-15.612,3.863L99.945,29.784c-.322-.483-.644-.966.161-1.127s14.485-2.575,15.129-2.736,1.127-.322,1.931.8c.8.966,11.105,14.163,11.588,14.646s-.161.8-1.127.966Z" transform="translate(-0.006 0.015)" fill="#fb503b"/>
</svg>
