<svg xmlns="http://www.w3.org/2000/svg" width="144" height="41.029" viewBox="0 0 144 41.029">
  <g id="mongodb" transform="translate(0 -0.203)">
    <path id="Tracé_36" data-name="Tracé 36" d="M408.588,56.816c-.13.026-.26.312-.26.467-.026,1.04-.052,3.794-.052,5.665a.193.193,0,0,0,.156.156c.39.026,1.325.052,2.131.052a5.562,5.562,0,0,0,2.131-.311,2.76,2.76,0,0,0,1.377-2.6c0-2.52-1.767-3.482-4.391-3.482a4.168,4.168,0,0,0-1.091.052Zm6.7,11.615c0-2.572-1.9-4-5.327-4-.156,0-1.247-.026-1.507.026-.078.026-.182.078-.182.156,0,1.845-.026,4.781.052,5.924a1.961,1.961,0,0,0,.858,1.4,5.948,5.948,0,0,0,2.26.312,3.548,3.548,0,0,0,3.846-3.82Zm-12-13.044c.26,0,1.039.078,3.04.078,1.9,0,3.4-.052,5.249-.052,2.26,0,5.379.805,5.379,4.183a4.074,4.074,0,0,1-2.7,3.638c-.078.026-.078.078,0,.1,2.182.546,4.106,1.9,4.106,4.443,0,2.495-1.559,4.08-3.82,5.067a12.429,12.429,0,0,1-4.833.805c-1.325,0-4.885-.156-6.86-.1-.208-.078.182-1.014.363-1.169a4.851,4.851,0,0,0,1.325-.208c.7-.182.779-.39.883-1.455.052-.909.052-4.132.052-6.418,0-3.144.026-5.275,0-6.314-.026-.805-.312-1.065-.883-1.221-.442-.078-1.169-.182-1.767-.26-.13-.13.312-1.014.468-1.117ZM388.294,71.549a5.239,5.239,0,0,0,2.937.7,5.757,5.757,0,0,0,4.157-1.481c1.377-1.247,2.338-3.17,2.338-6.236a7.444,7.444,0,0,0-3.4-6.73,9.192,9.192,0,0,0-4.885-1.143,3.894,3.894,0,0,0-1.455.182.764.764,0,0,0-.26.416c-.052.52-.052,4.521-.052,6.86,0,2.416,0,5.794.052,6.184a1.611,1.611,0,0,0,.572,1.247Zm-5.9-16.162c.494,0,2.391.078,3.3.078,1.637,0,2.806-.078,5.9-.078a9.613,9.613,0,0,1,6.34,2.026,8.425,8.425,0,0,1,2.884,6.652,8.707,8.707,0,0,1-3.586,7.484,12.016,12.016,0,0,1-7.457,2.1c-1.767,0-4.807-.052-7.328-.078h-.026c-.13-.234.208-1.143.416-1.169a4.142,4.142,0,0,0,1.2-.234c.545-.208.65-.494.728-1.455.078-1.793.052-3.95.052-6.392,0-1.741.026-5.145-.026-6.236-.078-.909-.467-1.143-1.247-1.3-.39-.078-.909-.182-1.637-.26-.1-.182.363-.987.493-1.143Z" transform="translate(-274.358 -39.646)" fill="#8e714e" fill-rule="evenodd"/>
    <path id="Tracé_37" data-name="Tracé 37" d="M135.983,87.944a5.226,5.226,0,0,1-1.689-.442.792.792,0,0,1-.208-.416c-.052-.909-.052-3.508-.052-5.249a6.125,6.125,0,0,0-.831-3.482,3.547,3.547,0,0,0-3.014-1.559,6.95,6.95,0,0,0-3.95,1.871c-.026.026-.234.208-.208-.078,0-.286.052-.857.078-1.247a.674.674,0,0,0-.182-.545,17.342,17.342,0,0,1-4.028,1.039c-.623.13-.779.728-.13.936h.026a5.765,5.765,0,0,1,1.533.676.808.808,0,0,1,.234.728c.026,1.948.026,4.937-.052,6.574-.026.65-.208.883-.676.987l.052-.026a10.261,10.261,0,0,1-1.091.208,1.519,1.519,0,0,0,0,1.169c.286,0,1.793-.078,3.04-.078,1.715,0,2.6.078,3.04.078a1.692,1.692,0,0,0,.13-1.169,4.81,4.81,0,0,1-1.2-.182c-.468-.1-.6-.338-.624-.883-.052-1.377-.052-4.288-.052-6.262a1.253,1.253,0,0,1,.311-.962,3.931,3.931,0,0,1,2.417-.883,2.686,2.686,0,0,1,1.793.6,2.555,2.555,0,0,1,.831,1.637c.13,1.117.078,3.326.078,5.249,0,1.039-.078,1.3-.467,1.429a4.945,4.945,0,0,1-1.2.234,1.522,1.522,0,0,0,0,1.17c.754,0,1.637-.078,2.936-.078,1.611,0,2.65.078,3.066.078a1.812,1.812,0,0,0,.078-1.118Zm7.2-9.925c-1.377,0-2.235,1.065-2.235,2.728,0,1.689.753,3.638,2.884,3.638a2.013,2.013,0,0,0,1.351-.52,3.44,3.44,0,0,0,.832-2.391c0-2.157-1.065-3.456-2.832-3.456ZM143,89.5a2.233,2.233,0,0,0-1.117.286c-1.091.7-1.585,1.377-1.585,2.183a2.3,2.3,0,0,0,.909,1.87,4.616,4.616,0,0,0,3.118.962c2.65,0,3.82-1.429,3.82-2.832a1.986,1.986,0,0,0-1.507-2A10.5,10.5,0,0,0,143,89.5Zm.182,6.756a5.749,5.749,0,0,1-3.716-1.091,3.425,3.425,0,0,1-1.377-2.572,1.99,1.99,0,0,1,.52-1.3A13.779,13.779,0,0,1,141,89.373c.052-.026.078-.052.078-.1a.172.172,0,0,0-.1-.13,2.473,2.473,0,0,1-1.689-1.637V87.45c-.026-.156-.078-.312.156-.468.182-.13.442-.286.727-.467a10.673,10.673,0,0,0,1.2-.78.19.19,0,0,0,.052-.156.172.172,0,0,0-.1-.13,3.789,3.789,0,0,1-2.728-3.976,3.945,3.945,0,0,1,1.663-3.274,7.64,7.64,0,0,1,3.742-1.273h.078a7.968,7.968,0,0,1,2.858.624,4.81,4.81,0,0,0,1.689.26,2.249,2.249,0,0,0,1.818-.675,1.411,1.411,0,0,1,.1.52,1.962,1.962,0,0,1-.338,1.2,1.476,1.476,0,0,1-1.143.494h-.13a5.792,5.792,0,0,1-.676-.1l-.1.052c-.026.052,0,.1.026.182l.026.052a9.592,9.592,0,0,1,.156,1.117,4.21,4.21,0,0,1-1.767,3.767,5.984,5.984,0,0,1-3.04,1.169,3.272,3.272,0,0,0-.364.026c-.13,0-.312.026-.338.026h-.026c-.208.052-.727.312-.727.753,0,.39.234.858,1.351.936.234.026.467.026.728.052a22.78,22.78,0,0,1,4.183.52,2.912,2.912,0,0,1,1.949,2.78c0,1.923-1.377,3.716-3.664,4.833a8.359,8.359,0,0,1-3.456.754Zm14.811-18.111a2.413,2.413,0,0,0-1.4.389c-1.013.624-1.533,1.871-1.533,3.69,0,3.4,1.715,5.795,4.157,5.795a2.644,2.644,0,0,0,1.793-.624c.753-.624,1.143-1.871,1.143-3.612,0-3.378-1.689-5.639-4.157-5.639Zm.468,11.121c-4.417,0-6-3.248-6-6.288a5.626,5.626,0,0,1,2.572-4.937,7.821,7.821,0,0,1,3.976-1.169,5.567,5.567,0,0,1,5.742,5.9,6.033,6.033,0,0,1-2.728,5.379,7.205,7.205,0,0,1-3.56,1.117Zm-46.3-11.121a2.414,2.414,0,0,0-1.4.39c-1.013.624-1.533,1.871-1.533,3.69,0,3.4,1.715,5.795,4.157,5.795a2.645,2.645,0,0,0,1.793-.624c.753-.624,1.143-1.871,1.143-3.612C116.313,80.409,114.65,78.148,112.156,78.148Zm.468,11.121c-4.417,0-6-3.248-6-6.288a5.626,5.626,0,0,1,2.572-4.937,7.821,7.821,0,0,1,3.976-1.169,5.567,5.567,0,0,1,5.742,5.9,6.033,6.033,0,0,1-2.728,5.379,7.039,7.039,0,0,1-3.56,1.117Zm-29.7-.26a1.111,1.111,0,0,1-.078-.6.878.878,0,0,1,.078-.39,9.583,9.583,0,0,0,1.143-.234c.52-.13.728-.416.753-1.065.078-1.559.078-4.522.052-6.574V80.1a.787.787,0,0,0-.286-.728,5.87,5.87,0,0,0-1.559-.676c-.234-.077-.39-.208-.364-.363,0-.156.156-.338.494-.39a19.011,19.011,0,0,0,3.975-1.013.643.643,0,0,1,.13.416l-.026.286c-.026.286-.052.624-.052.962a.2.2,0,0,0,.208.182.366.366,0,0,0,.156-.052A7.328,7.328,0,0,1,91.5,76.953,3.364,3.364,0,0,1,94.513,78.8a.2.2,0,0,0,.182.1.185.185,0,0,0,.156-.078,7.9,7.9,0,0,1,4.079-1.871c2.416,0,3.846,1.793,3.846,4.833,0,.857,0,1.975-.026,2.988,0,.909-.026,1.741-.026,2.338a.818.818,0,0,0,.467.623,5.548,5.548,0,0,0,1.507.364h.026a2.084,2.084,0,0,1-.156.987,6.384,6.384,0,0,1-.65-.026q-.987-.051-1.975-.052c-1.611,0-2.442.026-3.248.078a2.536,2.536,0,0,1,0-.987,8.068,8.068,0,0,0,.988-.234c.52-.156.65-.39.676-1.065,0-.494.1-4.7-.052-5.716a2.562,2.562,0,0,0-2.65-2.26,4.608,4.608,0,0,0-2.65,1.013.463.463,0,0,0-.1.26v.026a11.966,11.966,0,0,1,.1,2.131v1.689c0,1.169-.026,2.261,0,3.092a.761.761,0,0,0,.624.806c.156.026.26.052.39.078.234.052.468.1.831.182a1.4,1.4,0,0,1-.026.728.5.5,0,0,1-.1.26c-.883-.026-1.793-.052-3.118-.052-.39,0-1.065.026-1.637.026-.468,0-.909.026-1.169.026a1.37,1.37,0,0,1-.078-.52.809.809,0,0,1,.1-.468,1.757,1.757,0,0,1,.364-.052c.311-.052.572-.1.831-.156.442-.13.6-.364.624-.935a45.1,45.1,0,0,0-.026-5.951,2.448,2.448,0,0,0-2.547-2.26,4.768,4.768,0,0,0-2.65,1.014.839.839,0,0,0-.234.6V81.89c0,1.871,0,4.21.026,5.223a.806.806,0,0,0,.728.805,5.442,5.442,0,0,0,.6.1L89,88.1a2.179,2.179,0,0,1-.078.987c-.26,0-.572-.026-.936-.026-.545-.026-1.247-.052-2.026-.052-.909,0-1.559.026-2.079.052a6.278,6.278,0,0,0-.961-.052Z" transform="translate(-59.386 -55.027)" fill="#442d22" fill-rule="evenodd"/>
    <path id="Tracé_38" data-name="Tracé 38" d="M26.555,53.036l-1.065-.364s.13-5.43-1.819-5.82c-1.3-1.507.208-63.921,4.885-.208a3.8,3.8,0,0,0-1.9,2.183,20.041,20.041,0,0,0-.1,4.21Z" transform="translate(-16.685 -12.817)" fill="#fff" fill-rule="evenodd"/>
    <path id="Tracé_39" data-name="Tracé 39" d="M26.555,53.036l-1.065-.364s.13-5.43-1.819-5.82c-1.3-1.507.208-63.921,4.885-.208a3.8,3.8,0,0,0-1.9,2.183,20.041,20.041,0,0,0-.1,4.21Z" transform="translate(-16.685 -12.817)" fill="#a6a385" fill-rule="evenodd"/>
    <path id="Tracé_40" data-name="Tracé 40" d="M32.907,35.236s9.329-6.132,7.145-18.891c-2.1-9.276-7.067-12.316-7.613-13.485A13.117,13.117,0,0,1,31.27.573l.39,25.8c0,.026-.806,7.9,1.247,8.861" transform="translate(-22.465 -0.266)" fill="#fff" fill-rule="evenodd"/>
    <path id="Tracé_41" data-name="Tracé 41" d="M32.907,35.236s9.329-6.132,7.145-18.891c-2.1-9.276-7.067-12.316-7.613-13.485A13.117,13.117,0,0,1,31.27.573l.39,25.8c0,.026-.806,7.9,1.247,8.861" transform="translate(-22.465 -0.266)" fill="#499d4a" fill-rule="evenodd"/>
    <path id="Tracé_42" data-name="Tracé 42" d="M8.259,35.307S-.5,29.331.022,18.808C.516,8.284,6.7,3.113,7.9,2.178A2.42,2.42,0,0,0,8.753.2c.546,1.169.442,17.487.52,19.41C9.506,27.018,8.857,33.9,8.259,35.307Z" transform="translate(0)" fill="#fff" fill-rule="evenodd"/>
    <path id="Tracé_43" data-name="Tracé 43" d="M8.259,35.307S-.5,29.331.022,18.808C.516,8.284,6.7,3.113,7.9,2.178A2.42,2.42,0,0,0,8.753.2c.546,1.169.442,17.487.52,19.41C9.506,27.018,8.857,33.9,8.259,35.307Z" transform="translate(0)" fill="#58aa50" fill-rule="evenodd"/>
  </g>
</svg>
