<svg xmlns="http://www.w3.org/2000/svg" xmlns:xlink="http://www.w3.org/1999/xlink" width="144" height="81" viewBox="0 0 144 81">
  <defs>
    <clipPath id="clip-path">
      <path id="path3446" d="M14.4-347.939c0,20.081,30.947,36.36,69.12,36.36h0c38.173,0,69.12-16.279,69.12-36.36h0c0-20.081-30.947-36.36-69.12-36.36h0c-38.173,0-69.12,16.279-69.12,36.36" transform="translate(-14.4 384.299)"/>
    </clipPath>
    <radialGradient id="radial-gradient" cx="101.282" cy="-326.134" r="172.544" gradientTransform="translate(41.179 27.568) scale(0.526 0.526)" gradientUnits="userSpaceOnUse">
      <stop offset="0" stop-color="#aeb2d5"/>
      <stop offset="0.3" stop-color="#aeb2d5"/>
      <stop offset="0.75" stop-color="#484c89"/>
      <stop offset="1" stop-color="#484c89"/>
    </radialGradient>
    <clipPath id="clip-path-2">
      <path id="path3470" d="M0-405H144v81H0Z" transform="translate(0 405)"/>
    </clipPath>
  </defs>
  <g id="new-php-logo" transform="translate(0 405)">
    <g id="g3440" transform="translate(2.88 -400.86)">
      <g id="g3442" clip-path="url(#clip-path)">
        <g id="g3448">
          <g id="g3450">
            <path id="path3462" d="M14.4-347.939c0,20.081,30.947,36.36,69.12,36.36h0c38.173,0,69.12-16.279,69.12-36.36h0c0-20.081-30.947-36.36-69.12-36.36h0c-38.173,0-69.12,16.279-69.12,36.36" transform="translate(-14.4 384.299)" fill="url(#radial-gradient)"/>
          </g>
        </g>
      </g>
    </g>
    <g id="g3464" transform="translate(0 -405)">
      <g id="g3466" clip-path="url(#clip-path-2)">
        <g id="g3472" transform="translate(5.58 6.84)">
          <path id="path3474" d="M-265.68-269.282c36.682,0,66.42-15.07,66.42-33.66S-229-336.6-265.68-336.6s-66.42,15.071-66.42,33.66,29.738,33.66,66.42,33.66" transform="translate(332.1 336.603)" fill="#777bb3"/>
        </g>
      </g>
    </g>
    <g id="g3476" transform="translate(0 -405)">
      <g id="g3478" clip-path="url(#clip-path-2)">
        <g id="g3484" transform="translate(23.918 23.673)">
          <path id="path3486" d="M-66.062-84c3.016,0,5.268-.556,6.693-1.653,1.41-1.085,2.383-2.965,2.893-5.588.476-2.451.295-4.163-.538-5.087-.852-.943-2.693-1.422-5.473-1.422h-4.82L-69.98-84ZM-81.828-67.062a.749.749,0,0,1-.578-.273.75.75,0,0,1-.158-.62l7.082-36.438a.75.75,0,0,1,.736-.607h15.264c4.8,0,8.368,1.3,10.612,3.872s2.953,6.193,2.071,10.73a17.127,17.127,0,0,1-1.835,5.1,17.084,17.084,0,0,1-3.378,4.233,14.818,14.818,0,0,1-5.559,3.331,25.181,25.181,0,0,1-7.637.982h-6.181l-1.765,9.081a.75.75,0,0,1-.736.607Z" transform="translate(82.578 105)"/>
        </g>
        <g id="g3488" transform="translate(23.168 22.923)">
          <path id="path3490" d="M-66.551-35h4.2c3.355,0,4.521.736,4.917,1.175.657.728.781,2.264.359,4.442-.475,2.437-1.354,4.166-2.615,5.136-1.291.994-3.389,1.5-6.235,1.5h-3.009Zm7.208-8.75H-74.607a1.5,1.5,0,0,0-1.472,1.214L-83.162-6.1a1.5,1.5,0,0,0,.315,1.24,1.5,1.5,0,0,0,1.158.546h7.937a1.5,1.5,0,0,0,1.472-1.214L-70.632-14h5.562a25.913,25.913,0,0,0,7.87-1.019,15.567,15.567,0,0,0,5.839-3.5,17.841,17.841,0,0,0,3.52-4.414,17.875,17.875,0,0,0,1.917-5.325c.929-4.776.174-8.6-2.242-11.367-2.393-2.739-6.153-4.128-11.177-4.128m-11.408,22.5h4.828q4.8,0,7.15-1.809T-55.6-29.1q.788-4.062-.718-5.732t-6.03-1.67h-5.438l-2.964,15.25m11.408-21q6.888,0,10.047,3.615t1.9,10.094a16.315,16.315,0,0,1-1.754,4.88,16.273,16.273,0,0,1-3.231,4.046,14.02,14.02,0,0,1-5.283,3.17,24.332,24.332,0,0,1-7.405.945h-6.8l-1.883,9.687h-7.937l7.082-36.437h15.264" transform="translate(83.189 43.75)" fill="#fff"/>
        </g>
        <g id="g3492" transform="translate(57.708 13.986)">
          <path id="path3494" d="M-80.75-151.75a.749.749,0,0,1-.578-.273.749.749,0,0,1-.158-.62l3.133-16.122c.3-1.533.225-2.634-.207-3.1-.264-.284-1.057-.761-3.4-.761h-5.675l-3.939,20.268a.75.75,0,0,1-.736.607h-7.875a.75.75,0,0,1-.579-.273.75.75,0,0,1-.158-.62l7.082-36.438a.75.75,0,0,1,.736-.607h7.875a.75.75,0,0,1,.579.273.75.75,0,0,1,.158.62L-86.2-180H-80.1c4.651,0,7.805.82,9.642,2.507,1.872,1.721,2.457,4.473,1.737,8.18l-3.295,16.956a.75.75,0,0,1-.736.607Z" transform="translate(100.938 189.688)"/>
        </g>
        <g id="g3496" transform="translate(56.958 13.236)">
          <path id="path3498" d="M-65.828,0H-73.7a1.5,1.5,0,0,0-1.473,1.214l-7.082,36.438a1.5,1.5,0,0,0,.315,1.24,1.5,1.5,0,0,0,1.157.546h7.875a1.5,1.5,0,0,0,1.473-1.214l3.821-19.661h5.057c2.341,0,2.832.5,2.852.522.142.153.329.86.021,2.445L-62.82,37.652a1.5,1.5,0,0,0,.315,1.24,1.5,1.5,0,0,0,1.158.546h8a1.5,1.5,0,0,0,1.473-1.214l3.295-16.956c.773-3.98.112-6.966-1.965-8.875-1.982-1.82-5.3-2.705-10.15-2.705h-5.2l1.536-7.9a1.5,1.5,0,0,0-.315-1.24A1.5,1.5,0,0,0-65.828,0m0,1.5-1.883,9.688H-60.7q6.621,0,9.135,2.309t1.508,7.485l-3.295,16.956h-8l3.133-16.122q.535-2.751-.394-3.752t-3.951-1h-6.294L-72.91,37.938h-7.875L-73.7,1.5h7.875" transform="translate(82.285)" fill="#fff"/>
        </g>
        <g id="g3500" transform="translate(85.872 23.673)">
          <path id="path3502" d="M-66.062-84c3.016,0,5.268-.556,6.693-1.653,1.41-1.085,2.383-2.965,2.894-5.588.476-2.451.295-4.163-.539-5.087-.852-.943-2.693-1.422-5.473-1.422h-4.82L-69.98-84ZM-81.828-67.062a.749.749,0,0,1-.578-.273.75.75,0,0,1-.158-.62l7.082-36.438a.75.75,0,0,1,.737-.607h15.263c4.8,0,8.368,1.3,10.612,3.872s2.953,6.193,2.071,10.73a17.141,17.141,0,0,1-1.836,5.1,17.084,17.084,0,0,1-3.378,4.233,14.818,14.818,0,0,1-5.559,3.331,25.181,25.181,0,0,1-7.637.982h-6.181l-1.764,9.081a.75.75,0,0,1-.736.607Z" transform="translate(82.578 105)"/>
        </g>
        <g id="g3504" transform="translate(85.122 22.923)">
          <path id="path3506" d="M-66.55-35h4.2c3.355,0,4.521.736,4.917,1.175.657.728.781,2.264.359,4.441-.475,2.438-1.354,4.166-2.615,5.136-1.291.994-3.388,1.5-6.235,1.5h-3.008Zm7.208-8.75H-74.606a1.5,1.5,0,0,0-1.472,1.214L-83.16-6.1a1.5,1.5,0,0,0,.315,1.24,1.5,1.5,0,0,0,1.157.546h7.938a1.5,1.5,0,0,0,1.473-1.214L-70.631-14h5.562a25.913,25.913,0,0,0,7.87-1.019,15.567,15.567,0,0,0,5.839-3.5,17.832,17.832,0,0,0,3.52-4.414,17.875,17.875,0,0,0,1.917-5.325c.929-4.776.174-8.6-2.242-11.367-2.393-2.739-6.153-4.128-11.176-4.128m-11.408,22.5h4.828q4.8,0,7.15-1.809T-55.6-29.1q.788-4.062-.718-5.732t-6.03-1.67h-5.438l-2.964,15.25m11.408-21q6.888,0,10.047,3.615t1.9,10.094a16.314,16.314,0,0,1-1.754,4.88,16.273,16.273,0,0,1-3.23,4.046,14.02,14.02,0,0,1-5.283,3.17,24.332,24.332,0,0,1-7.405.945h-6.8l-1.883,9.687h-7.937l7.082-36.437h15.264" transform="translate(83.188 43.75)" fill="#fff"/>
        </g>
      </g>
    </g>
  </g>
</svg>
