<svg xmlns="http://www.w3.org/2000/svg" width="108.634" height="112" viewBox="0 0 108.634 112">
  <g id="postgresql" transform="translate(-0.297 -0.364)">
    <path id="Tracé_48" data-name="Tracé 48" d="M108.644,67.455a5.511,5.511,0,0,0-4.575-3.685,10.476,10.476,0,0,0-3.651.2,32.813,32.813,0,0,1-5.626.739A108.5,108.5,0,0,0,106.279,37.39c3.811-14.756,1.775-21.478-.605-24.518C99.375,4.823,90.186.5,79.1.368A47.092,47.092,0,0,0,65.286,2.3a51.432,51.432,0,0,0-8.078-.739A26.261,26.261,0,0,0,43.137,5.03,64.155,64.155,0,0,0,33.2,2.536C23.483.941,15.652,2.184,9.924,6.23,2.988,11.13-.228,19.642.367,31.531c.189,3.775,2.3,15.26,5.625,26.152a90.318,90.318,0,0,0,6.056,15.454c2.989,5.664,6.187,9,9.778,10.2a9.611,9.611,0,0,0,9.515-2.063,8.321,8.321,0,0,0,2,1.722,13.313,13.313,0,0,0,3.775,1.591,20.275,20.275,0,0,0,13.2-.786c.024.686.042,1.341.057,1.907.026.918.051,1.817.085,2.659.228,5.689.616,10.112,1.762,13.207.063.17.148.43.237.7a15.9,15.9,0,0,0,3.963,6.981,11.821,11.821,0,0,0,8.361,3.109,18.79,18.79,0,0,0,3.908-.435c4.177-.9,8.921-2.259,12.353-7.146,3.245-4.62,4.822-11.577,5.107-22.541.037-.31.071-.606.1-.888l.068-.579.764.067.2.013a30.247,30.247,0,0,0,12.652-2.192c2.525-1.171,10.615-5.443,8.71-11.209"/>
    <path id="Tracé_49" data-name="Tracé 49" d="M107.72,74.928c-12.651,2.61-13.52-1.673-13.52-1.673,13.357-19.819,18.941-44.977,14.122-51.134-13.146-16.8-35.9-8.852-36.281-8.647l-.122.022a45.118,45.118,0,0,0-8.44-.879,20.847,20.847,0,0,0-13.361,4S9.524-.107,11.413,37.648c.4,8.032,11.512,60.774,24.764,44.844C41.021,76.666,45.7,71.741,45.7,71.741a12.285,12.285,0,0,0,8.024,2.049l.227-.192a8.841,8.841,0,0,0,.091,2.268c-3.414,3.814-2.411,4.484-9.235,5.889-6.906,1.423-2.849,3.957-.2,4.62,3.211.8,10.64,1.94,15.659-5.087l-.2.8c1.337,1.072,2.277,6.969,2.119,12.315s-.262,9.017.791,11.884,2.1,9.318,11.077,7.4c7.5-1.607,11.381-5.77,11.922-12.714.383-4.937,1.251-4.207,1.306-8.621l.7-2.089c.8-6.692.128-8.852,4.746-7.847l1.123.1a25.583,25.583,0,0,0,10.459-1.761c5.623-2.609,8.957-6.966,3.413-5.822h0" transform="translate(-6.351 -6.352)" fill="#336791"/>
    <path id="Tracé_50" data-name="Tracé 50" d="M103.871,80.381a3.925,3.925,0,0,0-2.695.384.989.989,0,0,0-.409.658,1.921,1.921,0,0,0,.466,1.258,3.523,3.523,0,0,0,2.237,1.4,2.547,2.547,0,0,0,.358.025,2.9,2.9,0,0,0,2.746-1.868c.138-.994-1.3-1.656-2.7-1.85m37.766.031c-.109-.779-1.495-1-2.81-.818s-2.587.776-2.481,1.556a2.667,2.667,0,0,0,2.479,1.643,2.37,2.37,0,0,0,.332-.023,3.2,3.2,0,0,0,1.8-.987,1.988,1.988,0,0,0,.677-1.372" transform="translate(-57.728 -45.493)" fill="#fff"/>
    <path id="Tracé_51" data-name="Tracé 51" d="M109.691,72.3c-.482-1.459-2.035-1.928-4.614-1.4-7.659,1.581-10.4.486-11.3-.177a105.309,105.309,0,0,0,13.492-30.26,57.5,57.5,0,0,0,2-13.012c.063-4.025-.623-6.983-2.037-8.79-5.7-7.285-14.068-11.192-24.2-11.3a41.454,41.454,0,0,0-13.986,2.2,34.868,34.868,0,0,0-7.87-1.011A22.737,22.737,0,0,0,47.69,12.281a60.2,60.2,0,0,0-10.96-2.874c-8.878-1.429-15.934-.346-20.968,3.22C9.755,16.884,6.981,24.493,7.519,35.241c.181,3.616,2.241,14.74,5.493,25.394,4.28,14.022,8.933,21.96,13.828,23.593a6.193,6.193,0,0,0,1.962.325c1.786,0,3.975-.8,6.253-3.543q4.168-5,8.618-9.752a13.886,13.886,0,0,0,6.2,1.667c0,.057.01.113.015.169q-.558.666-1.093,1.351c-1.5,1.9-1.81,2.3-6.632,3.291-1.372.283-5.015,1.034-5.069,3.588-.058,2.79,4.307,3.962,4.8,4.087a20.575,20.575,0,0,0,4.995.648,14.535,14.535,0,0,0,10-3.735c-.084,9.948.331,19.75,1.525,22.737.978,2.445,3.368,8.42,10.917,8.42a17.512,17.512,0,0,0,3.668-.416c7.878-1.689,11.3-5.171,12.623-12.848.708-4.1,1.924-13.9,2.5-19.155a15.437,15.437,0,0,0,4.438.548,26.419,26.419,0,0,0,10.076-1.92c2.847-1.322,7.983-4.566,7.052-7.384ZM90.93,36.793a31.87,31.87,0,0,1-.466,4.43,40.915,40.915,0,0,0-.559,5.2,39.436,39.436,0,0,0,.412,5.881c.471,3.922.955,7.96-.917,11.944a15.531,15.531,0,0,1-.829-1.705c-.233-.564-.738-1.47-1.438-2.724-2.722-4.882-9.1-16.313-5.833-20.978.972-1.388,3.439-2.816,9.63-2.047ZM83.424,10.511c9.075.2,16.253,3.6,21.336,10.09,3.9,4.982-.394,27.648-12.821,47.2q-.187-.238-.377-.475l-.157-.2c3.211-5.3,2.583-10.55,2.024-15.2a36.456,36.456,0,0,1-.391-5.406,38.29,38.29,0,0,1,.524-4.824,30.457,30.457,0,0,0,.49-5.971,2.475,2.475,0,0,0,.052-.841c-.2-2.146-2.652-8.569-7.646-14.382A34.442,34.442,0,0,0,74.3,11.369a40.985,40.985,0,0,1,9.121-.858ZM32.644,79c-2.51,3.018-4.243,2.439-4.813,2.249-3.714-1.239-8.023-9.088-11.822-21.534-3.287-10.77-5.208-21.6-5.361-24.636-.48-9.6,1.848-16.3,6.92-19.894,8.254-5.853,21.824-2.35,27.277-.573-.078.077-.16.15-.237.228-8.948,9.037-8.736,24.476-8.714,25.42,0,.364.03.88.071,1.589a63.877,63.877,0,0,1-.325,12.9,16.318,16.318,0,0,0,4.3,13.658q.53.552,1.113,1.05c-1.533,1.642-4.865,5.273-8.412,9.539Zm9.562-12.758a13.2,13.2,0,0,1-3.46-11.055,66.779,66.779,0,0,0,.35-13.523c-.023-.379-.043-.71-.054-.972,1.307-1.159,7.365-4.4,11.685-3.415,1.971.451,3.172,1.794,3.672,4.1,2.585,11.954.342,16.937-1.46,20.941-.371.825-.722,1.6-1.022,2.411l-.232.624a40.873,40.873,0,0,0-1.474,4.434,11.153,11.153,0,0,1-8.005-3.548Zm.453,16.122a6.93,6.93,0,0,1-2.092-.9,10.215,10.215,0,0,1,2.228-.664c5.673-1.168,6.549-1.992,8.463-4.421.439-.557.936-1.188,1.625-1.958h0c1.026-1.148,1.495-.954,2.346-.6a3.318,3.318,0,0,1,1.633,2.1,2.338,2.338,0,0,1-.2,1.965C52.666,83.487,46.842,83.415,42.659,82.368ZM72.35,110c-6.94,1.487-9.4-2.054-11.017-6.1-1.045-2.613-1.559-14.4-1.194-27.414a1.568,1.568,0,0,0-.068-.5,6.571,6.571,0,0,0-.194-.92,6.354,6.354,0,0,0-3.447-4.135,4.862,4.862,0,0,0-3.173-.384,38.344,38.344,0,0,1,1.366-4.09l.234-.627c.263-.707.593-1.44.942-2.216,1.886-4.189,4.468-9.927,1.665-22.889-1.05-4.855-4.556-7.226-9.87-6.675A22.776,22.776,0,0,0,40.038,36.4c-.313.158-.6.311-.866.46.406-4.892,1.939-14.034,7.674-19.818,3.611-3.641,8.42-5.44,14.279-5.343A30.267,30.267,0,0,1,84.25,22.749,35.1,35.1,0,0,1,90.578,33.6c-5.851-.6-9.83.56-11.847,3.444-4.389,6.273,2.4,18.449,5.664,24.3.6,1.072,1.115,2,1.277,2.393a21.729,21.729,0,0,0,3.443,5.549c.308.385.607.758.834,1.083-1.772.511-4.955,1.691-4.665,7.592-.234,2.961-1.9,16.822-2.743,21.719-1.116,6.47-3.5,8.88-10.191,10.315Zm28.97-33.152a22.858,22.858,0,0,1-7.725,1.607c-3.182.149-4.8-.356-5.183-.667-.179-3.677,1.19-4.061,2.638-4.468.228-.064.45-.126.664-.2a5.409,5.409,0,0,0,.439.322c2.557,1.688,7.119,1.87,13.558.541l.071-.014a17.338,17.338,0,0,1-4.462,2.881Z" transform="translate(-4.112 -4.024)" fill="#fff"/>
  </g>
</svg>
