<svg id="prestashop" xmlns="http://www.w3.org/2000/svg" width="112" height="112" viewBox="0 0 112 112">
  <path id="Tracé_52" data-name="Tracé 52" d="M36.3,85.932c.894-.4,1.8-.764,2.715-1.108,1.032-.388,2.073-.753,3.128-1.071,1.313-.4,2.637-.753,3.979-1.038a49.351,49.351,0,0,1,5.484-.847q-1.562,4.9-3.416,9.7.076.936.1,1.876a39.712,39.712,0,0,1,15.419,0q.022-.939.1-1.876-1.853-4.8-3.416-9.7a49.344,49.344,0,0,1,5.484.847c1.341.285,2.665.643,3.978,1.038,1.055.318,2.1.683,3.129,1.071.915.344,1.821.71,2.716,1.108A48.591,48.591,0,0,1,92.572,98.389a56,56,0,1,0-73.144,0A48.6,48.6,0,0,1,36.3,85.932" fill="#a5dbe8"/>
  <path id="Tracé_53" data-name="Tracé 53" d="M153.344,191.191l3.476,11.954.986.046c.64,0,1.09.168,1.09.809,0,1.064.055,2.26.157,3.3.866.735,1.921,1.565,2.721,2.371a56.132,56.132,0,0,0,8.444-6.027,48.591,48.591,0,0,0-16.874-12.456m-6.8-.119,4.082-.989c-1.033-.388-2.073-.753-3.129-1.071-1.313-.4-2.637-.753-3.978-1.038a49.344,49.344,0,0,0-5.484-.847q1.562,4.9,3.416,9.7-.076.936-.1,1.876a40.143,40.143,0,0,1,8.365,2.725l-3.175-10.354" transform="translate(-77.646 -105.259)" fill="#525353"/>
  <path id="Tracé_54" data-name="Tracé 54" d="M63.707,223.585c.65.379,1.307.749,1.974,1.1.234-1.122.607-2.677.72-3.832-.866.735-1.895,1.924-2.695,2.73m44.135-8.351a39.3,39.3,0,0,0-8.3-2.621,39.712,39.712,0,0,0-15.419,0,41.38,41.38,0,0,0-8.538,2.6l-.28,1.742h33.055l-.521-1.718" transform="translate(-35.835 -119.169)"/>
  <path id="Tracé_55" data-name="Tracé 55" d="M55.443,212.5a29.892,29.892,0,0,0,.176-3.039,1,1,0,0,1,1.079-1.05l1.05-.037,3.535-11.96a48.6,48.6,0,0,0-16.875,12.456,56.132,56.132,0,0,0,8.444,6.027q1.2-1.21,2.5-2.314" transform="translate(-24.979 -110.484)" fill="#525353"/>
  <path id="Tracé_56" data-name="Tracé 56" d="M186.753,235.384a5.6,5.6,0,0,0,.319,1.372q1-.531,1.974-1.1-1.213-1.223-2.525-2.34l.232,2.069" transform="translate(-104.918 -131.24)"/>
  <path id="Tracé_57" data-name="Tracé 57" d="M160.593,205.124l.521,1.718h6.761l-3.591-11.849q-1.341-.594-2.716-1.108l-4.082.989,3.107,10.251" transform="translate(-88.586 -109.06)" fill="#aa9678"/>
  <path id="Tracé_58" data-name="Tracé 58" d="M75.039,228.874l.106-.075h-.1c0,.025,0,.05,0,.075" transform="translate(-42.209 -128.699)" fill="#c4b6a1"/>
  <path id="Tracé_59" data-name="Tracé 59" d="M180.819,228.8h-.1l.106.075c0-.025,0-.05,0-.075" transform="translate(-101.653 -128.699)" fill="#aa9678"/>
  <path id="Tracé_60" data-name="Tracé 60" d="M150.987,228.4l-23.1.026.048,12.047a55.767,55.767,0,0,0,24.016-5.4,35.389,35.389,0,0,1-.6-6.525c-.035-.025-.366-.145-.366-.145" transform="translate(-71.938 -128.477)" fill="#aa9678"/>
  <path id="Tracé_61" data-name="Tracé 61" d="M97.085,228.559s-23.225-.029-23.26,0c-.077,2.189-.529,4.786-.718,6.6a55.766,55.766,0,0,0,24.016,5.4l.013-11.958-.05-.039" transform="translate(-41.123 -128.557)" fill="#c4b6a1"/>
  <path id="Tracé_62" data-name="Tracé 62" d="M128,226.15h0v1.159h0Z" transform="translate(-72 -127.209)" fill="#786453"/>
  <path id="Tracé_63" data-name="Tracé 63" d="M164.649,205.236" transform="translate(-92.615 -115.445)" fill="#525353"/>
  <path id="Tracé_64" data-name="Tracé 64" d="M165.937,206.515l.012.036-.012-.036a10.86,10.86,0,0,1-1.288-1.279,10.86,10.86,0,0,0,1.288,1.279" transform="translate(-92.615 -115.445)" fill="#aa9678"/>
  <path id="Tracé_65" data-name="Tracé 65" d="M206.706,92.348v0m2.254,16.123v0" transform="translate(-116.272 -51.946)" fill="#fff"/>
  <path id="Tracé_66" data-name="Tracé 66" d="M211.857,129.143v0" transform="translate(-119.17 -72.634)" fill="#bbbcbd"/>
  <path id="Tracé_67" data-name="Tracé 67" d="M211.548,126.3c0,.015.006.028.008.043s0,.018.005.026v0a6.518,6.518,0,0,1,.042.663c0,.042.008.081.008.122v.032c0,.045-.008.086-.008.13q0,.326-.041.65v0l-.006.032c0,.017-.007.032-.009.049a6.012,6.012,0,0,1-.126.663v0h0l.008-.009,0-.01h0l1.466-1.534-1.477-1.547v0a5.935,5.935,0,0,1,.129.676" transform="translate(-118.923 -70.659)" fill="#676a6a"/>
  <path id="Tracé_68" data-name="Tracé 68" d="M206,125.079c0-.029.011-.055.015-.084.026-.21.035-.429.041-.65,0-.05.008-.1.008-.147s-.007-.091-.008-.137a6.528,6.528,0,0,0-.042-.663c0-.025-.01-.048-.013-.073a5.933,5.933,0,0,0-.129-.676c-.019-.075-.046-.142-.068-.215a4.33,4.33,0,0,0-.528-1.147,3.487,3.487,0,0,0-.269-.35,2.273,2.273,0,0,0-.29-.269c-.038-.029-.079-.05-.119-.075a1.647,1.647,0,0,0-.389-.188,1.2,1.2,0,0,0-.8,0,1.632,1.632,0,0,0-.389.188c-.039.025-.08.046-.118.075a2.31,2.31,0,0,0-.47.494q-.046.062-.089.126a4.318,4.318,0,0,0-.528,1.147l-.017.053a5.889,5.889,0,0,0-.142.63c-.011.066-.027.13-.036.2a6.042,6.042,0,0,0-.057.757c0,.036-.006.07-.006.106h.009c0,2.133,1.009,3.862,2.254,3.862a1.4,1.4,0,0,0,.617-.152,1.823,1.823,0,0,0,.332-.21c.042-.034.082-.075.123-.114a2.578,2.578,0,0,0,.284-.315c.062-.082.123-.164.18-.255.036-.058.07-.121.1-.183a4.054,4.054,0,0,0,.176-.366c.02-.046.041-.091.059-.139a5.131,5.131,0,0,0,.179-.566,6.009,6.009,0,0,0,.126-.663Zm-2.108-1.4c-.467,0-.845-.649-.845-1.449s.378-1.448.845-1.448.845.649.845,1.448S204.358,123.684,203.891,123.684Z" transform="translate(-113.376 -67.689)"/>
  <path id="Tracé_69" data-name="Tracé 69" d="M205.8,121.367c-.467,0-.845.649-.845,1.448s.378,1.449.845,1.449.845-.649.845-1.449-.378-1.448-.845-1.448" transform="translate(-115.289 -68.269)" fill="#fff"/>
  <path id="Tracé_70" data-name="Tracé 70" d="M202.147,113.39a4.316,4.316,0,0,1,.528-1.147c.029-.044.058-.084.089-.126a2.279,2.279,0,0,1,.47-.494c.038-.029.079-.049.118-.075a1.615,1.615,0,0,1,.389-.188,1.2,1.2,0,0,1,.8,0,1.647,1.647,0,0,1,.389.188c.039.025.08.046.119.075a2.27,2.27,0,0,1,.29.269,3.487,3.487,0,0,1,.269.35,4.331,4.331,0,0,1,.528,1.147h0l-1.994-9.134-1.995,9.133h0" transform="translate(-113.708 -58.645)" fill="#909393"/>
  <path id="Tracé_71" data-name="Tracé 71" d="M132.738,122.282a5.429,5.429,0,0,0-.035-.544.038.038,0,0,1,0-.007q-.031-.262-.088-.52l0-.013q-.056-.251-.137-.5l0-.011a5,5,0,0,0-.185-.476s0-.006,0-.01a5.3,5.3,0,0,0-2.818-2.73l-.015-.006a5.232,5.232,0,0,0-.944-.285l-.025,0a5.184,5.184,0,0,0-2.006,0l-.034.005a5.246,5.246,0,0,0-.927.276l-.024.009a5.229,5.229,0,0,0-.861.447,5.373,5.373,0,0,0-.764.6l-.006.018-.02,0a5.347,5.347,0,0,0-.958,1.222l-.01.016c-.079.139-.15.283-.216.43-.007.016-.016.031-.022.046-.06.136-.112.277-.16.419-.009.028-.021.054-.03.082-.042.133-.076.269-.109.4-.008.039-.021.077-.029.116-.028.135-.047.273-.065.411-.005.042-.014.083-.019.126a5.251,5.251,0,0,0,.072,1.57.185.185,0,0,0,0,.021,5.2,5.2,0,0,0,.288.951.11.11,0,0,0,0,.013,5.316,5.316,0,0,0,2.3,2.6l.007,0c.142.08.288.151.438.218l.037.018c.138.06.281.112.425.161.024.008.048.019.073.027.133.042.27.077.408.108.037.009.073.021.111.029.133.028.271.046.409.064.042,0,.083.014.125.019a5.275,5.275,0,0,0,5.824-5.247c0-.013,0-.024,0-.036s0-.026,0-.04Zm-5.272-.618a1.982,1.982,0,1,1,1.982-1.982,1.982,1.982,0,0,1-1.982,1.982Z" transform="translate(-68.732 -65.859)"/>
  <path id="Tracé_72" data-name="Tracé 72" d="M131.7,118.494a1.982,1.982,0,1,0,1.982,1.982,1.982,1.982,0,0,0-1.982-1.982" transform="translate(-72.967 -66.653)" fill="#fff"/>
  <path id="Tracé_73" data-name="Tracé 73" d="M85.014,101.878l.02,0,.006-.018,3.634-11.113v-2.63a30.97,30.97,0,0,0-6.234-.643c-.711,0-1.416.03-2.117.078l-.307.021A31.22,31.22,0,0,0,69.45,90.314a33.78,33.78,0,0,0-7.884,5.052h0l0,0q-.956.819-1.851,1.7c-.112.109-.226.218-.336.329q-.845.853-1.635,1.758c-.114.132-.227.266-.34.4q-.8.934-1.532,1.918c-.041.055-.079.113-.119.168q-.7.953-1.337,1.946c-.084.129-.169.256-.251.387-.346.548-.667,1.111-.987,1.676H69.728l15.287-3.777" transform="translate(-29.91 -49.201)" fill="#bbbcbd"/>
  <path id="Tracé_74" data-name="Tracé 74" d="M144.632,101.455q.051-.65.084-1.3.045-.881.062-1.763c.009-.456.007-.913.005-1.369,0-.132,0-.263,0-.4q-.02-1.767-.13-3.532l-.01-.007,0-.008q-.656-.377-1.314-.751l-.031-.017-.343-.194-.006,0-.238-.133-.047-.026-.173-.094q-1.141-.592-2.327-1.093a41.267,41.267,0,0,0-5.847-1.828v2.63l3.6,11.131,0,.009a5.311,5.311,0,0,1,.948,1.211h0c.084.147.161.3.231.454a.059.059,0,0,1,0,.01,5,5,0,0,1,.185.476l0,.011q.08.243.137.5l0,.013c.038.17.067.344.088.52a.037.037,0,0,0,0,.007,5.429,5.429,0,0,1,.035.544l.014.03h4.41a48.165,48.165,0,0,0,.637-4.892c0-.045.008-.09.012-.135" transform="translate(-75.553 -50.028)" fill="#e3dddb"/>
  <path id="Tracé_75" data-name="Tracé 75" d="M171.069,108.55s-.005.01-.008.015l.008-.015" transform="translate(-96.222 -61.059)" fill="#fcb03f"/>
  <path id="Tracé_76" data-name="Tracé 76" d="M126.01,106.064a5.374,5.374,0,0,1,.767-.6,5.229,5.229,0,0,1,.858-.445l.024-.009a5.245,5.245,0,0,1,.927-.277l.034-.005a5.184,5.184,0,0,1,2.006,0l.025,0a5.235,5.235,0,0,1,.959.291,5.315,5.315,0,0,1,1.639,1.065l0-.009-3.6-11.131-3.634,11.113" transform="translate(-70.881 -53.41)" fill="#909393"/>
  <path id="Tracé_77" data-name="Tracé 77" d="M105.006,126.218a5.2,5.2,0,0,1-.288-.951.185.185,0,0,1,0-.021,5.251,5.251,0,0,1-.072-1.57c0-.042.014-.083.019-.126.018-.138.037-.276.065-.411.008-.039.021-.077.029-.116.032-.136.066-.272.109-.4.009-.028.021-.054.03-.082.048-.142.1-.283.16-.419.007-.016.015-.031.022-.046.066-.147.137-.291.216-.43l.01-.016a5.347,5.347,0,0,1,.958-1.222L90.973,124.18h-.029l15.141,3.7a5.3,5.3,0,0,1-1.075-1.645.111.111,0,0,1,0-.013" transform="translate(-51.156 -67.727)" fill="#676a6a"/>
  <path id="Tracé_78" data-name="Tracé 78" d="M184.467,104.876c.01-.068.024-.132.036-.2a5.9,5.9,0,0,1,.142-.63c.007-.023.009-.049.016-.071l1.995-9.133V89.635a8.14,8.14,0,0,0-5.192-2.082,8.978,8.978,0,0,0-6.037,2.834,22.637,22.637,0,0,0-4.2,6.045c-.05.1-.1.2-.152.3q.506.438,1,.89,1.117,1.025,2.194,2.092c.335.331.664.668.994,1,.35.357.7.712,1.045,1.075q.946.993,1.865,2.012.788.87,1.56,1.755h0c.086.09.147.155.17.181h4.5c0-.036.007-.07.008-.106a6.043,6.043,0,0,1,.057-.757m-13.393-8.123,0-.014-.008.015.02.019-.007-.021" transform="translate(-96.222 -49.249)" fill="#e3dddb"/>
  <path id="Tracé_79" data-name="Tracé 79" d="M42.146,83.8l.04-.1a42.425,42.425,0,0,1,2.086-4.582c.122-.231.241-.463.367-.692.07-.126.148-.247.219-.373.319-.564.641-1.127.987-1.676.082-.131.168-.258.251-.387q.639-.993,1.337-1.946c.04-.055.078-.113.119-.168q.735-.983,1.532-1.918c.113-.133.225-.267.34-.4q.789-.905,1.635-1.758c.111-.111.224-.22.336-.329q.894-.886,1.851-1.7l0,0C55.766,59.331,63.891,54.152,73,54.152A20.127,20.127,0,0,1,83.437,57.12a17.047,17.047,0,0,1,7.087,7.224l.025.05c.043.085.091.166.133.252l0,.008.01.007a33.777,33.777,0,0,1,4.06,2.951q.645.544,1.265,1.117c.136.125.277.244.412.371a.166.166,0,0,1,.008-.015l0-.011c.046-.095.092-.192.139-.285,1.284-8.1,5.362-12.519,9.577-12.519,3.177,0,5.487,1.894,7.231,6.994l.018.055,0,.006a19.048,19.048,0,0,1,1.438,1.771h0l.028.036h0c.025.074.046.15.07.224h0l-.066-.266A39.282,39.282,0,0,0,38.391,77.666,38.844,38.844,0,0,0,40.343,89.89l.005-.022a42.1,42.1,0,0,1,1.8-6.072" transform="translate(-21.595 -21.595)" fill="#525353"/>
  <path id="Tracé_80" data-name="Tracé 80" d="M201.451,129.073l-1.37,1.533h0l0,.01a5.078,5.078,0,0,1-.186.571c-.018.048-.039.093-.059.139a4,4,0,0,1-.176.366c-.034.062-.067.125-.1.183-.057.091-.118.174-.18.255a2.573,2.573,0,0,1-.284.315c-.041.038-.08.08-.123.114a1.824,1.824,0,0,1-.332.21,1.4,1.4,0,0,1-.617.152c-1.245,0-2.254-1.729-2.254-3.862h-4.522l0,0q1.274,1.473,2.509,2.98,1.186,1.449,2.342,2.922l.114.144q1.1,1.4,2.172,2.813l.209.273q1.143,1.5,2.271,3.02a39.2,39.2,0,0,0,2.06-12.156l-1.271-.048-.2.063" transform="translate(-107.573 -72.568)" fill="#fff"/>
  <path id="Tracé_81" data-name="Tracé 81" d="M90.8,79l.307-.021q1.057-.075,2.117-.078a30.969,30.969,0,0,1,6.234.643h0a41.266,41.266,0,0,1,5.847,1.828q1.185.5,2.327,1.093l.173.094.047.026.238.133.006,0,.343.194.031.017c.484.274,1.019.582,1.224.7l.052.03.037.021c-.042-.086-.09-.167-.133-.252l-.025-.05a20.447,20.447,0,0,0-7.514-8.18,20.028,20.028,0,0,0-29.76,11.6,33.78,33.78,0,0,1,7.884-5.052A31.22,31.22,0,0,1,90.8,79" transform="translate(-40.7 -40.629)"/>
  <path id="Tracé_82" data-name="Tracé 82" d="M209.558,95.484h0l-.028-.036h0a19.048,19.048,0,0,0-1.438-1.771l-.013-.015q-.329-.357-.679-.693c-.086-.083-.175-.155-.263-.234-.144-.131-.287-.266-.433-.386v5.21l1.995,9.134h0c.022.071.048.137.067.211l1.382,1.548.014-.015h1.446c0-.134.01-.266.01-.4v0a39.189,39.189,0,0,0-1.989-12.32l0-.006c-.024-.074-.046-.15-.07-.224" transform="translate(-116.272 -51.946)" fill="#bbbcbd"/>
  <path id="Tracé_83" data-name="Tracé 83" d="M140.787,83.9a8.978,8.978,0,0,1,6.038-2.834,8.14,8.14,0,0,1,5.192,2.082v.016c.146.12.289.255.433.386.087.079.176.151.263.234q.35.336.679.693l.013.015,0-.005h0l-.018-.055c-1.744-5.1-4.559-8.413-7.735-8.413-4.215,0-7.789,5.836-9.073,13.937l.014-.011a22.636,22.636,0,0,1,4.2-6.045m-5.7,49.79a10.849,10.849,0,0,1-1.288-1.279,13.029,13.029,0,0,1-.936-1.206q-.138-.2-.273-.416a13.221,13.221,0,0,1-.73-1.474,8.524,8.524,0,0,1-.437-1.559,11.012,11.012,0,0,1-.279-1.253,10.776,10.776,0,0,1-.133-2.068,11.242,11.242,0,0,1,.113-1.234,12.118,12.118,0,0,1,.244-1.242,14.905,14.905,0,0,1,1.723-4.051l.218-.489c.28-.466.342-.446.608-.9,3.747-6.323,5.768-11.1,4.779-18.467q-.163-1.131-.369-2.256-.129.815-.273,1.627a4.018,4.018,0,0,1-.178.465c-1.628,4.817-4.189,8.36-7.876,12.361q-.77.832-1.558,1.647-1.408,1.456-2.846,2.883-.6.6-1.22,1.21c-.38.376-.853,1.181-1.417,1.774-.348.975-.744,2.075-1.079,3.232-.151-.057-.295-.109-.448-.168a52.416,52.416,0,0,1-11.956-6.471,52.422,52.422,0,0,0,9.9,9.312,20.153,20.153,0,0,0,1.776,1.15c-.256,4.058,1.534,7.954,9.615,9.116a16.406,16.406,0,0,0,4.175.028c-.014-.042.079-.041.071-.064s.075-.086.075-.086" transform="translate(-61.583 -42.76)"/>
  <path id="Tracé_84" data-name="Tracé 84" d="M157.909,178.531a49.963,49.963,0,0,0,28.814-4.193c.266-.124.558.2.824.073,0,0-7.533,7.694-16.53,12.044-.263.127-.522.262-.788.383-.869.4-1.754.743-2.641,1.063a24.744,24.744,0,0,1-5.256,1.32c-.081.01-.161.026-.242.035l-.033-.1-.012-.036a10.86,10.86,0,0,1-1.288-1.279,12.781,12.781,0,0,1-.935-1.206,12.535,12.535,0,0,1-1.05-1.842,11.505,11.505,0,0,1-.624-1.679,10.815,10.815,0,0,1-.412-3.321,11.233,11.233,0,0,1,.113-1.234l.06-.027" transform="translate(-88.723 -98.049)" fill="#9f2254"/>
  <path id="Tracé_85" data-name="Tracé 85" d="M142.962,127.685q1.438-1.427,2.846-2.883.788-.815,1.558-1.647c3.686-4,6.392-7.745,8.02-12.562.038-.114.077-.265.114-.434l.017-.078c.038-.18.075-.38.112-.605.015-.155.5-.469.515-.614a19.129,19.129,0,0,0-2.376-5.986l.007.021-.02-.019c-.135-.127-.275-.246-.412-.371q-.62-.573-1.265-1.117a33.816,33.816,0,0,0-4.06-2.951c.072,1.179.118,2.356.13,3.532,0,.132,0,.264,0,.4,0,.456,0,.913-.005,1.369q-.017.882-.062,1.763-.033.651-.084,1.3c0,.045-.009.09-.012.135a48.164,48.164,0,0,1-.637,4.892l-.518,2.45c-1.082,4.386-3.28,8.365-5.086,12.473-.479,1.089-.934,2.191-1.332,3.313l-.113.317q.712-.751,1.444-1.482.621-.615,1.22-1.21" transform="translate(-78.918 -55.371)" fill="#fcb03f"/>
  <path id="Tracé_86" data-name="Tracé 86" d="M90.5,201.165a36,36,0,0,1,7.954-2.463q-.022-.939-.1-1.876,1.853-4.8,3.416-9.7a49.356,49.356,0,0,0-5.484.847c-1.342.285-2.666.643-3.979,1.038-1.055.318-2.1.682-3.128,1.071l4.082.989-3.285,10.31.521-.217" transform="translate(-50.166 -105.259)" fill="#525353"/>
  <path id="Tracé_87" data-name="Tracé 87" d="M179.683,126.4q-1.076-1.414-2.172-2.813l-.114-.144q-1.171-1.491-2.372-2.958-1.22-1.489-2.479-2.944c-.053-.062-.106-.124-.16-.185q-1.038-1.192-2.107-2.356-.652-.711-1.317-1.411-.518-.541-1.045-1.074c-.33-.336-.659-.674-.994-1q-1.078-1.066-2.194-2.092-.495-.452-1-.89l0,.011a44.884,44.884,0,0,1,1.925,6.232q.158.83.263,1.617c.989,7.362-1.37,12.169-5.117,18.492q-.411.693-.826,1.384a14.932,14.932,0,0,0-1.723,4.051,12.23,12.23,0,0,0-.244,1.242,49.377,49.377,0,0,0,29.7-4.148s-2.217-3.258-5.552-7.737q-1.12-1.5-2.255-3c-.069-.091-.14-.182-.209-.273" transform="translate(-88.876 -61.046)" fill="#df0067"/>
  <path id="Tracé_88" data-name="Tracé 88" d="M81.422,207.026,85.1,194.873l-4.082-.989c-.914.343-1.82.71-2.715,1.108l-3.64,12.034,4.063.063,2.7-.063" transform="translate(-41.996 -109.06)" fill="#aa9678"/>
  <path id="Tracé_89" data-name="Tracé 89" d="M66.12,165.291c.359.138.724.262,1.088.389a39.247,39.247,0,0,0,27.644-.635c.24-.1.475-.2.712-.3q.577-.245,1.146-.508c.339-.158.677-.314,1.011-.48-.08.01-.161.026-.242.035a16.4,16.4,0,0,1-4.175-.028c-8.081-1.162-9.871-5.058-9.615-9.116a20.15,20.15,0,0,1-1.776-1.15,52.423,52.423,0,0,1-9.9-9.312,52.415,52.415,0,0,0,11.956,6.471c.154.06.3.111.448.168.335-1.157.731-2.257,1.079-3.232l.113-.317c.4-1.122.853-2.224,1.332-3.313,1.807-4.108,4-8.087,5.086-12.473l.518-2.45h-4.42v.009h0c0,.012,0,.024,0,.036A5.273,5.273,0,0,1,82.3,134.33c-.042,0-.083-.014-.125-.019-.138-.018-.276-.037-.409-.064-.038-.008-.073-.02-.111-.029-.137-.031-.275-.066-.408-.108l-.073-.027c-.144-.049-.287-.1-.425-.161l-.037-.018q-.224-.1-.437-.218l-.007,0a5.327,5.327,0,0,1-1.226-.951l-15.141-3.7H47.375c-.071.126-.15.247-.219.373-.126.229-.245.461-.367.692q-.609,1.151-1.146,2.337-.5,1.109-.94,2.245l-.04.1a42.1,42.1,0,0,0-1.8,6.072,39.373,39.373,0,0,0,14.279,19.558c.193.14.4.264.591.4a39.277,39.277,0,0,0,3.475,2.178,38.864,38.864,0,0,0,4.91,2.3" transform="translate(-24.112 -72.583)" fill="#fff"/>
  <path id="Tracé_90" data-name="Tracé 90" d="M120,227.82q-.159-1.575-.165-3.16a1.159,1.159,0,0,0-1.159-1.159H70.068a1.159,1.159,0,0,0-1.159,1.159c0,1.064-.063,2.117-.165,3.161a32.058,32.058,0,0,1-.525,3.416c.7.373,1.415.735,2.138,1.079a34.357,34.357,0,0,0,.845-6.422c0-.025,0-.05,0-.075h46.331c0,.025,0,.05,0,.075a34.394,34.394,0,0,0,.846,6.422q1.08-.517,2.138-1.079A32.178,32.178,0,0,1,120,227.82" transform="translate(-38.374 -125.719)" fill="#8b7460"/>
</svg>
