<svg id="react" xmlns="http://www.w3.org/2000/svg" width="124.711" height="112.125" viewBox="0 0 124.711 112.125">
  <path id="Tracé_7" data-name="Tracé 7" d="M.754,56.646c0,9.418,9.2,18.21,23.7,23.166-2.9,14.576-.519,26.324,7.419,30.9,8.159,4.706,20.314,1.448,31.85-8.637,11.246,9.678,22.611,13.486,30.542,8.9,8.151-4.719,10.63-17.264,7.655-32.295,15.1-4.993,23.549-12.49,23.549-22.032,0-9.2-9.213-17.158-23.517-22.083,3.2-15.652.489-27.115-7.777-31.882-7.969-4.6-19.467-.59-30.878,9.34C51.421,1.481,40.037-1.737,31.779,3.043,23.817,7.652,21.545,19.614,24.45,34.46,10.44,39.344.754,47.483.754,56.646Z" transform="translate(-0.754 -0.785)" fill="#fff"/>
  <path id="Tracé_8" data-name="Tracé 8" d="M106.305,46.453q-1.768-.607-3.565-1.123.3-1.211.551-2.432c2.7-13.1.934-23.655-5.092-27.129-5.777-3.332-15.227.142-24.77,8.447q-1.411,1.23-2.758,2.531-.9-.864-1.835-1.695c-10-8.881-20.027-12.623-26.046-9.138-5.772,3.341-7.482,13.264-5.052,25.679q.363,1.844.819,3.668c-1.419.4-2.789.832-4.1,1.289-11.726,4.088-19.214,10.5-19.214,17.141,0,6.864,8.039,13.749,20.252,17.923q1.486.505,2.995.936Q38,84.514,37.62,86.5c-2.316,12.2-.507,21.887,5.25,25.208,5.946,3.429,15.926-.1,25.644-8.59q1.152-1.007,2.311-2.13,1.459,1.407,2.994,2.732c9.413,8.1,18.709,11.371,24.461,8.041,5.941-3.439,7.871-13.845,5.364-26.507q-.287-1.451-.664-2.961,1.051-.31,2.06-.643C117.736,77.447,126,70.647,126,63.691c0-6.67-7.73-13.12-19.692-17.238Z" transform="translate(-8.141 -7.785)" fill="#53c1de"/>
  <path id="Tracé_9" data-name="Tracé 9" d="M108.472,82.073c-.605.2-1.227.394-1.86.582A111.047,111.047,0,0,0,101,68.624a111,111,0,0,0,5.39-13.826c1.133.328,2.233.674,3.292,1.039,10.249,3.528,16.5,8.744,16.5,12.764,0,4.282-6.752,9.84-17.714,13.472Zm-4.549,9.014a40.064,40.064,0,0,1,.532,14.617c-.66,3.556-1.986,5.926-3.626,6.875-3.49,2.02-10.955-.606-19-7.533q-1.384-1.191-2.785-2.539a111.186,111.186,0,0,0,9.284-11.788,110.45,110.45,0,0,0,15-2.312q.338,1.368.6,2.679Zm-46,21.144c-3.41,1.2-6.126,1.239-7.768.292-3.494-2.015-4.946-9.793-2.965-20.226q.353-1.849.809-3.677A111.258,111.258,0,0,0,62.924,90.78a115.13,115.13,0,0,0,9.507,11.746q-1.031,1-2.11,1.943a40.071,40.071,0,0,1-12.4,7.762ZM41.947,82.047a40.082,40.082,0,0,1-12.918-6.862C26.282,72.832,24.9,70.5,24.9,68.6c0-4.033,6.013-9.177,16.041-12.673q1.888-.655,3.812-1.2a113.472,113.472,0,0,0,5.4,13.988A115.2,115.2,0,0,0,44.681,82.9Q43.3,82.508,41.947,82.047ZM47.3,45.594c-2.082-10.638-.7-18.662,2.779-20.676,3.706-2.145,11.9.914,20.534,8.581.552.49,1.106,1,1.662,1.534a113.383,113.383,0,0,0-9.435,11.676,115.609,115.609,0,0,0-14.779,2.3q-.424-1.7-.761-3.412Zm47.774,11.8q-1.624-2.805-3.368-5.539c3.534.446,6.92,1.039,10.1,1.765a100.923,100.923,0,0,1-3.545,9.537q-1.535-2.913-3.186-5.763ZM75.594,38.414a101.183,101.183,0,0,1,6.518,7.868q-6.541-.309-13.09,0c2.152-2.838,4.356-5.474,6.572-7.865ZM55.987,57.423q-1.63,2.827-3.126,5.727c-1.378-3.268-2.557-6.481-3.519-9.584,3.16-.707,6.53-1.285,10.041-1.724q-1.763,2.75-3.4,5.58Zm3.5,28.274a100.739,100.739,0,0,1-10.207-1.641c.978-3.158,2.183-6.44,3.59-9.778q1.5,2.9,3.14,5.731,1.671,2.885,3.477,5.688ZM75.725,99.121c-2.242-2.42-4.479-5.1-6.664-7.975q3.181.125,6.48.125,3.387,0,6.686-.149A100.616,100.616,0,0,1,75.725,99.121ZM98.307,74.107a100.481,100.481,0,0,1,3.719,9.743A100.414,100.414,0,0,1,91.7,85.611q1.756-2.784,3.4-5.636,1.671-2.9,3.212-5.868ZM91,77.612q-2.517,4.372-5.313,8.573c-3.286.235-6.682.356-10.142.356s-6.8-.107-10.028-.317q-2.868-4.189-5.413-8.586-2.531-4.371-4.725-8.924,2.187-4.551,4.711-8.929h0q2.522-4.375,5.37-8.549c3.294-.249,6.671-.379,10.085-.379,3.429,0,6.811.131,10.1.382q2.818,4.165,5.336,8.52t4.775,8.887Q93.537,73.213,91,77.612Zm9.76-52.835c3.709,2.139,5.151,10.764,2.821,22.076q-.229,1.105-.5,2.2a113.342,113.342,0,0,0-14.809-2.34,111.148,111.148,0,0,0-9.362-11.684q1.244-1.2,2.547-2.336C89.633,25.579,97.275,22.769,100.757,24.777Z" transform="translate(-13.062 -12.695)" fill="#fff"/>
  <path id="Tracé_10" data-name="Tracé 10" d="M117.934,94.665a9.89,9.89,0,1,1-9.89,9.89,9.89,9.89,0,0,1,9.89-9.89" transform="translate(-55.455 -48.649)" fill="#53c1de"/>
</svg>
