<svg xmlns="http://www.w3.org/2000/svg" width="148.289" height="111.154" viewBox="0 0 148.289 111.154">
  <path id="sass-1" d="M127.538,64.068A30.55,30.55,0,0,0,114.1,67.2c-1.39-2.752-2.781-5.156-3.012-6.952a19.227,19.227,0,0,1-.261-5.851,46.884,46.884,0,0,1,1.767-6.315c-.029-.261-.319-1.535-3.3-1.564s-5.561.579-5.851,1.361a33.266,33.266,0,0,0-1.245,4.432c-.521,2.723-5.967,12.368-9.066,17.437a17.789,17.789,0,0,1-2.057-5.1,19.225,19.225,0,0,1-.26-5.851,46.908,46.908,0,0,1,1.767-6.314c-.029-.261-.319-1.535-3.3-1.564s-5.561.579-5.851,1.361-.608,2.636-1.245,4.432c-.609,1.8-7.85,17.9-9.733,22.1-.956,2.143-1.8,3.852-2.4,5.011s-.029.087-.087.2c-.521.985-.811,1.535-.811,1.535v.029c-.406.724-.84,1.419-1.043,1.419-.145,0-.434-1.941.058-4.605,1.072-5.591,3.679-14.309,3.65-14.627,0-.145.492-1.68-1.68-2.462a2.64,2.64,0,0,0-3.041.521c-.174,0-.319.463-.319.463s2.346-9.819-4.49-9.819c-4.287,0-10.2,4.663-13.121,8.921-1.854,1.014-5.793,3.157-9.964,5.445-1.593.869-3.244,1.8-4.808,2.636l-.318-.348C25.784,64.3,10.461,58.043,11.1,46.168c.232-4.316,1.738-15.7,29.429-29.487,22.68-11.3,40.841-8.2,44-1.3,4.49,9.848-9.7,28.154-33.281,30.79-8.979,1.014-13.7-2.462-14.888-3.765-1.246-1.361-1.419-1.419-1.883-1.159-.753.406-.29,1.622,0,2.346.7,1.825,3.592,5.069,8.516,6.691,4.316,1.419,14.859,2.2,27.6-2.723,14.28-5.532,25.431-20.884,22.158-33.715-3.331-13.063-25-17.35-45.475-10.08-12.195,4.345-25.4,11.123-34.9,20.015C1.076,34.321-.719,43.532.034,47.355,2.67,61,21.468,69.89,29,76.465c-.377.2-.724.405-1.043.579C24.191,78.9,9.853,86.4,6.261,94.336c-4.055,8.979.637,15.439,3.765,16.308,9.674,2.694,19.58-2.143,24.939-10.109,5.329-7.965,4.692-18.306,2.23-23.027l-.087-.174L40.063,75.6c1.912-1.13,3.795-2.172,5.445-3.071a36.064,36.064,0,0,0-1.94,9.848c-.406,5.1,1.68,11.7,4.432,14.309a4.9,4.9,0,0,0,3.563,1.159c3.186,0,4.634-2.636,6.228-5.793C59.76,88.2,61.5,83.735,61.5,83.735s-2.172,12.078,3.765,12.078c2.172,0,4.345-2.81,5.33-4.258v.029s.058-.087.174-.29q.182-.27.348-.55v-.058c.869-1.506,2.81-4.953,5.706-10.659,3.736-7.357,7.328-16.568,7.328-16.568a52.869,52.869,0,0,0,1.419,5.967,57.1,57.1,0,0,0,3.1,6.952c-.869,1.217-1.39,1.912-1.39,1.912l.029.029c-.695.927-1.477,1.912-2.288,2.9-2.954,3.534-6.488,7.56-6.952,8.719-.55,1.361-.434,2.375.637,3.186a5.8,5.8,0,0,0,3.65.579A16.258,16.258,0,0,0,87.8,92.454a18.859,18.859,0,0,0,4.692-2.462,10.447,10.447,0,0,0,4.49-9.24,18.578,18.578,0,0,0-1.709-6.517c.261-.377.522-.753.782-1.159a122.269,122.269,0,0,0,8.11-14.048A52.867,52.867,0,0,0,105.583,65a41.832,41.832,0,0,0,2.636,5.967c-4.287,3.5-6.981,7.56-7.907,10.225-1.709,4.924-.377,7.154,2.143,7.676a7.71,7.71,0,0,0,3.968-.811,17.982,17.982,0,0,0,5.011-2.578c2.9-2.143,5.677-5.127,5.532-9.153a17.546,17.546,0,0,0-1.245-5.416,28.218,28.218,0,0,1,14.367-1.651c12.89,1.506,15.438,9.559,14.946,12.918a8.652,8.652,0,0,1-4.084,5.793c-.9.55-1.188.753-1.1,1.159.116.609.521.579,1.3.464,1.072-.174,6.778-2.752,7.01-8.95.348-7.967-7.212-16.656-20.623-16.57ZM28.13,97.581c-4.258,4.663-10.254,6.43-12.8,4.924-2.752-1.593-1.68-8.458,3.563-13.411a68.153,68.153,0,0,1,10.051-7.5c.608-.377,1.535-.927,2.636-1.593a3.087,3.087,0,0,1,.29-.174c.2-.116.434-.261.666-.406a18.476,18.476,0,0,1-4.4,18.161ZM59.267,76.407c-1.477,3.621-4.605,12.918-6.488,12.4-1.622-.434-2.607-7.473-.319-14.425a32.2,32.2,0,0,1,5.069-9.3c2.346-2.607,4.9-3.476,5.533-2.4C63.815,64.068,60.194,74.148,59.267,76.407ZM84.96,88.688c-.637.319-1.217.55-1.477.377-.2-.116.26-.55.26-.55s3.215-3.447,4.49-5.04c.724-.927,1.593-2,2.52-3.215v.348c0,4.171-4,6.951-5.793,8.081Zm19.812-4.519c-.463-.348-.405-1.419,1.159-4.779a17.909,17.909,0,0,1,4.4-5.677,7.165,7.165,0,0,1,.434,2.491C110.739,81.418,107.031,83.359,104.771,84.17Z" transform="translate(0.116 -0.241)" fill="#cf649a"/>
</svg>
