<svg xmlns="http://www.w3.org/2000/svg" width="112" height="112" viewBox="0 0 112 112">
  <g id="slack-1" transform="translate(0 -0.079)">
    <path id="Tracé_91" data-name="Tracé 91" d="M140.948,6.976a9.976,9.976,0,0,0-18.976,6.166l25.8,79.372a9.979,9.979,0,0,0,18.97-6.163L140.948,6.976" transform="translate(-68.316 0)" fill="#dfa22f"/>
    <path id="Tracé_92" data-name="Tracé 92" d="M49.609,36.654A9.977,9.977,0,1,0,30.632,42.82l25.8,79.372A9.979,9.979,0,0,0,75.4,116.028L49.609,36.654" transform="translate(-16.95 -16.69)" fill="#3cb187"/>
    <path id="Tracé_93" data-name="Tracé 93" d="M121.794,141.029a9.977,9.977,0,0,0-6.166-18.977l-79.372,25.8a9.978,9.978,0,0,0,6.163,18.969l79.375-25.79" transform="translate(-16.69 -68.317)" fill="#ce1e5b"/>
    <path id="Tracé_94" data-name="Tracé 94" d="M74.585,184.97l18.97-6.164-6.165-18.972L68.419,166l6.166,18.97" transform="translate(-38.476 -89.84)" fill="#392538"/>
    <path id="Tracé_95" data-name="Tracé 95" d="M165.923,155.287l18.971-6.164-6.165-18.976-18.972,6.166,6.166,18.973" transform="translate(-89.842 -73.145)" fill="#bb242a"/>
    <path id="Tracé_96" data-name="Tracé 96" d="M92.115,49.689a9.977,9.977,0,1,0-6.166-18.977L6.577,56.511a9.978,9.978,0,0,0,6.164,18.968l79.374-25.79" transform="translate(0 -16.951)" fill="#72c5cd"/>
    <path id="Tracé_97" data-name="Tracé 97" d="M44.9,93.632l18.973-6.165c-2.33-7.173-4.5-13.839-6.164-18.972L38.732,74.662,44.9,93.632" transform="translate(-21.781 -38.474)" fill="#248c73"/>
    <path id="Tracé_98" data-name="Tracé 98" d="M136.236,63.943l18.974-6.165q-3.067-9.485-6.161-18.981L130.07,44.969l6.166,18.974" transform="translate(-73.147 -21.773)" fill="#62803a"/>
  </g>
</svg>
