<svg xmlns="http://www.w3.org/2000/svg" width="112" height="112" viewBox="0 0 112 112">
  <g id="symfony" transform="translate(0 -0.827)">
    <circle id="Ellipse_1" data-name="Ellipse 1" cx="56" cy="56" r="56" transform="translate(0 0.827)" fill="#1a171b"/>
    <path id="Tracé_99" data-name="Tracé 99" d="M104.215,48.112c-5.681.2-10.64,3.329-14.331,7.661A48.3,48.3,0,0,0,81.118,71.9c-3.5-2.872-6.208-6.59-11.83-8.212A14.462,14.462,0,0,0,56.18,66.087a11.757,11.757,0,0,0-4.01,5.841c-1.687,5.485,1.773,10.366,3.345,12.119l3.436,3.682a5.218,5.218,0,0,1,1.58,5.306c-.9,2.936-4.441,4.837-8.071,3.717-1.621-.494-3.951-1.7-3.429-3.4a15.862,15.862,0,0,1,.98-1.818,8.521,8.521,0,0,0,.436-1.132c.663-2.166-.243-4.983-2.562-5.7-2.164-.663-4.378-.138-5.236,2.649-.973,3.165.541,8.91,8.655,11.412,9.506,2.921,17.548-2.255,18.689-9.006.718-4.228-1.191-7.37-4.689-11.41l-2.85-3.152a5.2,5.2,0,0,1-.532-6.923c1.508-1.906,3.655-2.719,7.172-1.763,5.133,1.394,7.421,4.956,11.239,7.828-1.576,5.171-2.607,10.361-3.539,15.015l-.568,3.47C73.5,107.134,71.412,114.995,66,119.507a8.764,8.764,0,0,1-5,2.018,1.438,1.438,0,0,1-1.647-1.179c-.029-.865.7-1.261,1.184-1.651a3,3,0,0,0,1.743-3.146,4.746,4.746,0,0,0-5.1-4.528,5.912,5.912,0,0,0-5.483,6c.133,3.955,3.818,6.918,9.376,6.731,2.971-.1,9.6-1.311,16.142-9.083,7.609-8.908,9.737-19.121,11.338-26.6L90.339,78.2c.993.119,2.054.2,3.209.226,9.477.2,14.217-4.709,14.287-8.279.047-2.161-1.418-4.287-3.468-4.239a3.957,3.957,0,0,0-3.755,3.049c-.432,1.992,3.016,3.789.321,5.534-1.915,1.239-5.347,2.112-10.18,1.4l.879-4.858c1.794-9.212,4.006-20.542,12.4-20.818.612-.031,2.85.028,2.9,1.508.015.494-.107.62-.686,1.752a4.014,4.014,0,0,0-.784,2.5c.081,2.352,1.869,3.9,4.456,3.8,3.463-.112,4.459-3.484,4.4-5.215-.14-4.069-4.428-6.639-10.106-6.453Z" transform="translate(-23.843 -26.592)" fill="#fff"/>
  </g>
</svg>
