<svg xmlns="http://www.w3.org/2000/svg" xmlns:xlink="http://www.w3.org/1999/xlink" width="111.999" height="112" viewBox="0 0 111.999 112">
  <defs>
    <clipPath id="clip-path">
      <path id="Tracé_105" data-name="Tracé 105" d="M0,0H112V112H0Z"/>
    </clipPath>
  </defs>
  <g id="wordpress-blue" clip-path="url(#clip-path)">
    <path id="Tracé_100" data-name="Tracé 100" d="M297.239,47.207H277.807v2.061c6.078,0,7.055,1.3,7.055,9.01v13.9c0,7.707-.975,9.119-7.055,9.119-4.666-.652-7.816-3.148-12.158-7.925l-4.993-5.427c6.729-1.2,10.311-5.428,10.311-10.205,0-5.969-5.1-10.529-14.654-10.529h-19.1v2.061c6.078,0,7.055,1.3,7.055,9.01v13.9c0,7.707-.976,9.119-7.055,9.119v2.062h21.6V81.293c-6.077,0-7.055-1.412-7.055-9.119V68.268H253.6l12.05,15.087H297.24c15.523,0,22.254-8.249,22.254-18.129s-6.732-18.02-22.255-18.02ZM251.756,64.9V50.464h4.45c4.884,0,7.056,3.365,7.056,7.273,0,3.8-2.172,7.164-7.056,7.164Zm45.809,15.09H296.8c-3.907,0-4.45-.975-4.45-5.969V50.464h5.21c11.289,0,13.35,8.249,13.35,14.654C310.916,71.739,308.853,79.99,297.565,79.99ZM176.748,68.918l7.489-22.147c2.172-6.4,1.2-8.248-5.753-8.248V36.351h20.408v2.172c-6.838,0-8.467,1.627-11.18,9.552L175.336,85.2h-1.41L162.852,51.223,151.564,85.2h-1.412L138.1,48.075c-2.605-7.924-4.342-9.552-10.638-9.552V36.352h24.1v2.172c-6.406,0-8.143,1.519-5.862,8.248l7.273,22.147,10.963-32.567H166l10.747,32.566Zm36.906,15.847c-11.94,0-21.71-8.792-21.71-19.54,0-10.638,9.77-19.431,21.71-19.431s21.71,8.793,21.71,19.431C235.364,75.973,225.6,84.765,213.654,84.765Zm0-35.6c-9.986,0-13.461,9.008-13.461,16.065,0,7.166,3.475,16.066,13.461,16.066,10.1,0,13.57-8.9,13.57-16.066,0-7.057-3.474-16.065-13.57-16.065Z" transform="translate(-10.947 -3.122)" fill="#00749a"/>
    <path id="Tracé_101" data-name="Tracé 101" d="M364.528,81.184v2.171H339.67V81.184c7.274,0,8.576-1.846,8.576-12.7V51.115c0-10.857-1.3-12.592-8.576-12.592V36.35h22.47c11.18,0,17.37,5.753,17.37,13.462,0,7.49-6.189,13.352-17.37,13.352h-6.189v5.317c0,10.858,1.3,12.7,8.577,12.7ZM362.14,40.258h-6.189V59.147h6.189c6.079,0,8.9-4.233,8.9-9.335C371.042,44.6,368.22,40.258,362.14,40.258Zm91.943,32.893-.544,1.953c-.975,3.582-2.172,4.885-9.879,4.885h-1.52c-5.644,0-6.621-1.3-6.621-9.009V65.988c8.467,0,9.119.759,9.119,6.4H446.7V56.216h-2.063c0,5.645-.652,6.4-9.119,6.4V50.464h5.969c7.709,0,8.9,1.3,9.879,4.885l.545,2.062h1.735l-.759-10.2H420.973v2.061c6.078,0,7.056,1.3,7.056,9.01v13.9c0,7.051-.829,8.827-5.622,9.081-4.555-.7-7.682-3.18-11.961-7.887l-4.994-5.427c6.731-1.2,10.313-5.428,10.313-10.205,0-5.969-5.1-10.529-14.654-10.529h-19.1v2.061c6.078,0,7.056,1.3,7.056,9.01v13.9c0,7.707-.976,9.119-7.056,9.119v2.062h21.6V81.293c-6.077,0-7.056-1.412-7.056-9.119V68.268H398.4l12.049,15.087h44.614l.652-10.2-1.631,0ZM396.552,64.9V50.464H401c4.885,0,7.057,3.365,7.057,7.273,0,3.8-2.172,7.164-7.057,7.164Zm79.567,19.866a16.048,16.048,0,0,1-9.77-3.691,7.791,7.791,0,0,0-1.736,3.691H462.55V69.786h2.171c.869,7.165,5.861,11.4,12.267,11.4,3.474,0,6.3-1.954,6.3-5.21,0-2.822-2.5-4.994-6.947-7.056l-6.189-2.931c-4.343-2.064-7.6-5.647-7.6-10.422,0-5.21,4.885-9.66,11.616-9.66a13.594,13.594,0,0,1,8.467,2.823,6.132,6.132,0,0,0,1.411-2.932h2.062v12.81h-2.28c-.761-5.1-3.582-9.336-9.335-9.336-3.039,0-5.862,1.736-5.862,4.452,0,2.822,2.279,4.341,7.49,6.729l5.969,2.931c5.211,2.5,7.273,6.515,7.273,9.771,0,6.838-5.97,11.613-13.243,11.613Zm33.434,0a16.043,16.043,0,0,1-9.77-3.691,7.791,7.791,0,0,0-1.735,3.691h-2.063V69.786h2.171c.868,7.165,5.86,11.4,12.267,11.4,3.474,0,6.3-1.954,6.3-5.21,0-2.822-2.5-4.994-6.948-7.056l-6.189-2.931c-4.342-2.064-7.6-5.647-7.6-10.422,0-5.21,4.885-9.66,11.616-9.66a13.6,13.6,0,0,1,8.467,2.823,6.123,6.123,0,0,0,1.41-2.932h2.063v12.81H517.26c-.76-5.1-3.582-9.336-9.335-9.336-3.039,0-5.863,1.736-5.863,4.452,0,2.822,2.28,4.341,7.491,6.729l5.969,2.931c5.21,2.5,7.272,6.515,7.272,9.771,0,6.838-5.97,11.613-13.242,11.613Z" transform="translate(-29.173 -3.122)" fill="#464342"/>
    <g id="Groupe_1" data-name="Groupe 1">
      <path id="Tracé_102" data-name="Tracé 102" d="M8.708,56.747A48.05,48.05,0,0,0,35.783,99.983L12.867,37.2A47.858,47.858,0,0,0,8.708,56.747Zm80.471-2.424a25.293,25.293,0,0,0-3.962-13.249C82.782,37.116,80.5,33.765,80.5,29.808c0-4.416,3.348-8.527,8.066-8.527.213,0,.415.027.623.038A48.031,48.031,0,0,0,16.61,30.362c1.127.034,2.19.057,3.092.057,5.025,0,12.8-.61,12.8-.61a1.985,1.985,0,0,1,.309,3.957s-2.6.306-5.5.458L44.808,86.26,55.322,54.729,47.837,34.223c-2.587-.152-5.038-.458-5.038-.458-2.589-.152-2.285-4.11.3-3.957,0,0,7.934.61,12.654.61,5.024,0,12.8-.61,12.8-.61a1.985,1.985,0,0,1,.308,3.957s-2.608.306-5.5.458L80.73,85.865l4.791-16.013C87.6,63.207,89.179,58.435,89.179,54.322Z" transform="translate(-0.748 -0.748)" fill="#00749a"/>
      <path id="Tracé_103" data-name="Tracé 103" d="M60.83,63.3,46.416,105.18a48.053,48.053,0,0,0,29.524-.765,4.07,4.07,0,0,1-.342-.662ZM102.14,36.046a36.87,36.87,0,0,1,.324,4.94,45.317,45.317,0,0,1-3.653,17.207L84.137,100.62a48.049,48.049,0,0,0,18-64.574Z" transform="translate(-3.986 -3.096)" fill="#00749a"/>
      <path id="Tracé_104" data-name="Tracé 104" d="M56,0a56,56,0,1,0,56,56A56.063,56.063,0,0,0,56,0Zm0,109.433A53.432,53.432,0,1,1,109.43,56,53.495,53.495,0,0,1,56,109.433Z" fill="#00749a"/>
    </g>
  </g>
</svg>
